<?xml version="1.0" standalone="no"?>
<!DOCTYPE svg PUBLIC "-//W3C//DTD SVG 20010904//EN"
 "http://www.w3.org/TR/2001/REC-SVG-20010904/DTD/svg10.dtd">
<svg version="1.0" xmlns="http://www.w3.org/2000/svg"
 width="1080.000000pt" height="1920.000000pt" viewBox="0 0 1080.000000 1920.000000"
 preserveAspectRatio="xMidYMid meet">

<g transform="translate(0.000000,1920.000000) scale(0.100000,-0.100000)"
fill="#000000" stroke="none">
<path d="M5225 14824 c-511 -24 -953 -99 -1390 -236 -373 -116 -824 -320
-1153 -521 -630 -386 -1176 -903 -1594 -1513 -394 -574 -678 -1242 -807 -1899
-76 -387 -103 -661 -103 -1050 0 -684 116 -1302 362 -1920 90 -225 92 -230
166 -377 189 -380 360 -648 626 -983 246 -309 634 -681 981 -938 249 -185 645
-415 947 -550 540 -241 1116 -388 1715 -438 193 -16 648 -16 840 0 518 43
1027 160 1466 335 64 25 119 46 122 46 20 0 347 159 512 248 447 242 920 609
1283 996 278 296 585 714 755 1026 326 601 508 1133 607 1776 53 347 71 868
42 1204 -73 834 -334 1629 -760 2315 -222 358 -449 642 -757 950 -605 606
-1296 1026 -2115 1289 -338 109 -743 189 -1118 221 -174 14 -507 25 -627 19z
m-835 -381 c23 -20 27 -53 6 -53 -7 0 -19 -7 -26 -15 -11 -13 -7 -15 28 -15
22 0 53 5 67 10 15 6 52 11 83 11 31 0 107 7 167 15 354 44 987 43 1275 -3 52
-8 126 -19 163 -23 98 -13 260 -46 395 -81 64 -17 137 -36 162 -41 25 -5 59
-15 75 -23 17 -7 46 -16 65 -20 19 -4 44 -13 55 -19 11 -7 45 -19 75 -26 30
-7 65 -18 77 -26 12 -8 30 -14 39 -14 9 0 40 -11 68 -24 28 -14 92 -41 141
-62 50 -20 146 -65 215 -99 69 -35 132 -66 140 -70 15 -6 51 -27 177 -99 67
-39 173 -106 183 -116 3 -3 23 -17 45 -31 22 -14 53 -34 69 -45 16 -10 36 -23
44 -29 9 -5 50 -36 91 -68 42 -32 110 -83 151 -115 217 -166 573 -525 751
-757 153 -199 220 -291 236 -325 9 -19 20 -37 24 -40 14 -10 57 -78 120 -191
35 -63 69 -123 76 -134 18 -32 72 -142 120 -245 70 -149 80 -172 98 -220 9
-25 25 -65 35 -90 50 -124 60 -155 60 -179 0 -14 8 -42 18 -61 11 -19 22 -57
26 -84 3 -27 12 -57 20 -65 8 -9 16 -43 18 -78 1 -35 7 -63 13 -64 5 0 1 -4
-10 -8 -11 -5 -28 -5 -37 0 -22 12 -38 11 -38 -1 0 -5 7 -10 17 -10 26 0 5
-14 -25 -16 -15 -1 -40 -9 -57 -18 -29 -15 -52 -12 -26 3 9 6 3 8 -16 7 -35
-1 -64 -22 -57 -40 3 -8 -2 -16 -11 -20 -11 -4 -14 -2 -9 7 6 9 5 9 -7 0 -8
-6 -30 -10 -49 -8 -19 1 -44 -4 -55 -11 -11 -8 -27 -14 -37 -14 -10 0 -18 -7
-18 -16 0 -8 -4 -12 -10 -9 -5 3 -11 -2 -11 -12 -1 -16 -2 -16 -6 -1 -2 9 -13
20 -24 23 -10 4 -21 18 -24 33 -11 54 -24 98 -50 167 -15 39 -40 108 -57 155
-16 47 -38 103 -49 126 -10 22 -19 44 -19 48 0 4 -20 48 -44 99 -24 51 -47 99
-50 107 -4 8 -29 56 -56 105 -27 50 -59 108 -70 130 -50 97 -152 261 -183 295
-8 8 -17 22 -21 30 -3 8 -20 33 -37 55 -16 22 -40 56 -53 76 -108 162 -452
538 -626 682 -47 39 -96 81 -110 94 -14 12 -56 47 -95 78 -38 30 -77 62 -86
70 -9 8 -19 15 -23 15 -4 0 -45 26 -89 58 -45 33 -102 71 -127 86 -61 36 -172
104 -190 116 -8 5 -33 18 -55 29 -22 11 -47 25 -55 30 -17 10 -188 92 -291
140 -36 16 -79 33 -95 37 -16 4 -36 12 -44 19 -8 7 -35 18 -60 24 -25 7 -54
16 -65 21 -39 19 -271 91 -355 111 -47 11 -112 27 -145 36 -32 8 -98 22 -145
30 -47 8 -122 20 -168 28 -192 32 -584 51 -741 35 -64 -6 -184 -18 -267 -25
-115 -10 -160 -18 -190 -34 -27 -14 -58 -21 -99 -21 -43 -1 -74 -8 -110 -25
-28 -14 -68 -25 -90 -25 -22 0 -57 -9 -77 -20 -21 -11 -57 -23 -80 -26 -24 -4
-60 -15 -80 -25 -21 -11 -48 -19 -60 -19 -13 0 -32 -6 -43 -13 -11 -8 -41 -19
-67 -25 -25 -7 -59 -17 -75 -23 -15 -7 -48 -20 -73 -29 -185 -71 -229 -89
-246 -98 -10 -6 -98 -49 -194 -96 -161 -79 -253 -130 -370 -206 -25 -16 -56
-35 -70 -42 -14 -7 -45 -29 -70 -49 -25 -20 -65 -49 -90 -65 -25 -16 -72 -49
-105 -74 -33 -26 -71 -54 -85 -63 -14 -9 -55 -40 -91 -69 -37 -29 -102 -81
-145 -115 -44 -35 -88 -71 -99 -81 -11 -10 -50 -45 -88 -77 -73 -64 -240 -246
-307 -335 -125 -167 -273 -390 -300 -450 -6 -14 -22 -43 -35 -65 -76 -129
-209 -416 -268 -580 -81 -222 -187 -600 -187 -664 0 -11 -7 -46 -15 -78 -9
-32 -22 -125 -30 -208 -9 -82 -20 -181 -25 -220 -15 -109 -12 -527 4 -657 8
-62 17 -149 21 -193 11 -149 101 -588 140 -685 8 -19 17 -51 20 -70 4 -19 13
-44 20 -56 8 -12 17 -39 20 -60 4 -21 13 -48 20 -59 7 -11 16 -36 20 -55 7
-34 27 -82 66 -165 24 -51 24 -93 -1 -125 -11 -14 -20 -30 -20 -36 0 -6 -9
-23 -20 -37 -11 -14 -23 -40 -27 -57 -3 -17 -12 -34 -19 -37 -7 -2 -16 -18
-19 -33 -4 -16 -14 -39 -24 -52 -10 -13 -22 -37 -25 -55 -4 -17 -13 -37 -21
-43 -7 -6 -16 -27 -20 -47 -3 -20 -13 -47 -22 -60 -9 -13 -19 -38 -22 -56 -9
-43 -33 -45 -54 -5 -98 187 -207 406 -207 416 0 8 -9 25 -20 39 -11 14 -20 35
-20 47 0 11 -12 39 -25 61 -14 22 -25 48 -25 58 0 10 -6 28 -14 40 -8 12 -17
38 -21 57 -4 19 -16 54 -26 77 -11 23 -19 47 -19 54 0 7 -8 31 -18 53 -11 23
-26 70 -34 106 -9 36 -35 138 -57 227 -23 89 -48 204 -56 255 -7 51 -20 136
-29 188 -24 156 -46 473 -46 665 0 196 23 517 47 660 8 50 19 122 24 160 11
80 77 382 89 405 4 8 15 51 24 95 10 44 23 91 30 105 8 14 17 41 21 60 4 19
13 44 20 55 7 11 18 45 25 75 7 30 19 64 26 75 8 11 14 29 14 40 0 11 9 34 20
50 11 17 20 36 20 42 0 7 16 46 35 87 19 41 35 79 35 83 0 4 7 22 16 38 9 17
41 80 71 140 30 61 59 117 64 125 5 8 16 29 25 45 71 130 224 372 291 459 21
27 40 56 43 63 3 7 27 39 53 71 26 31 73 89 103 127 86 108 119 147 274 316 8
9 39 43 67 75 118 132 118 132 84 141 -27 7 -44 53 -33 84 6 13 63 74 128 134
65 61 131 122 147 138 16 15 32 27 35 28 4 0 34 22 67 49 33 27 98 75 145 107
47 32 91 64 99 72 8 7 27 18 43 23 15 6 28 14 28 19 0 5 15 16 33 24 17 8 55
29 82 45 28 17 57 33 65 37 8 3 22 12 30 18 8 7 66 38 128 70 62 31 115 61
118 66 3 5 16 9 28 9 13 0 29 7 36 15 7 8 18 15 24 15 11 0 42 14 161 70 22
10 67 29 100 40 178 64 284 99 315 105 19 3 49 13 65 20 17 8 58 18 92 24 34
5 71 15 82 20 11 6 37 11 58 11 21 0 61 7 88 15 59 17 117 12 145 -12z m540
-4029 c16 -16 -4 -52 -33 -58 -12 -3 -96 -7 -187 -10 -238 -6 -298 -27 -331
-115 -21 -55 -22 -70 -24 -673 -2 -587 -3 -619 -20 -638 -13 -14 -29 -20 -49
-18 -53 5 -55 26 -54 684 0 438 -3 606 -12 647 -12 53 -15 57 -61 76 -73 32
-186 44 -340 37 -118 -6 -138 -5 -149 9 -10 12 -11 24 -4 43 8 22 17 28 49 32
22 3 302 3 622 0 417 -4 585 -8 593 -16z m1894 1 c16 -7 18 -15 11 -64 -4 -31
-7 -63 -7 -71 0 -8 3 -298 6 -644 6 -675 4 -708 -41 -729 -19 -8 -27 -7 -41 7
-15 15 -18 66 -24 561 -7 640 -8 644 -99 659 -49 8 -79 -10 -105 -62 -10 -20
-24 -44 -30 -52 -18 -23 -60 -166 -139 -476 -24 -95 -58 -212 -75 -260 -17
-49 -49 -145 -70 -214 -42 -135 -66 -170 -119 -170 -37 0 -80 34 -99 79 -15
38 -44 143 -88 321 -14 58 -34 132 -44 165 -10 33 -22 81 -26 108 -3 26 -10
49 -14 52 -5 3 -11 24 -15 48 -4 23 -16 65 -27 92 -11 28 -26 75 -34 105 -18
78 -55 180 -81 223 -22 36 -24 37 -78 37 -50 0 -59 -3 -84 -31 -46 -50 -51
-118 -54 -664 -1 -269 -6 -498 -10 -507 -20 -40 -71 -27 -81 19 -9 43 -11
1415 -2 1441 4 13 19 27 33 33 32 12 228 12 274 -1 32 -9 37 -15 43 -48 3 -20
6 -50 6 -65 0 -16 18 -86 40 -155 39 -125 67 -223 95 -332 95 -370 122 -440
170 -440 41 0 56 -12 75 -56 31 -70 99 -70 100 0 1 12 14 59 31 106 59 166 87
254 99 315 5 28 28 118 50 200 22 83 47 177 55 210 9 33 22 80 29 105 8 25 17
61 20 81 7 41 49 86 86 91 38 5 243 -8 264 -17z m1366 -7 c103 -24 110 -28
180 -88 41 -35 60 -61 73 -98 25 -69 20 -106 -15 -110 -24 -3 -32 4 -62 50
-49 78 -92 116 -171 153 -85 40 -186 51 -322 35 -145 -16 -252 -73 -311 -164
-24 -36 -27 -51 -27 -128 l0 -87 40 -41 c22 -23 60 -52 85 -66 73 -42 201 -90
257 -98 28 -3 67 -13 85 -20 18 -8 56 -17 83 -21 28 -4 55 -11 61 -16 6 -5 39
-16 75 -25 35 -9 69 -20 75 -25 6 -5 29 -15 51 -23 70 -25 135 -87 169 -161
45 -100 40 -274 -11 -375 -27 -53 -111 -150 -130 -150 -7 0 -15 -6 -18 -14 -3
-8 -23 -19 -44 -26 -21 -7 -51 -20 -68 -30 -102 -61 -395 -55 -520 9 -21 12
-44 21 -51 21 -19 0 -130 76 -171 117 -69 69 -133 163 -133 194 0 47 27 79 66
79 38 0 48 -13 59 -79 19 -116 136 -232 290 -287 70 -25 94 -28 200 -28 114
-1 124 1 205 33 110 44 174 106 214 206 24 61 27 78 21 134 -12 109 -30 154
-82 202 -48 45 -123 86 -198 109 -22 7 -49 16 -60 21 -11 4 -51 15 -90 24
-276 66 -401 119 -493 213 -93 94 -117 172 -87 277 47 166 173 255 425 303 71
13 256 3 350 -20z m-4926 12 c30 -11 32 -18 12 -46 -14 -18 -34 -19 -403 -25
-583 -9 -575 -4 -577 -329 -1 -214 6 -235 99 -290 l60 -35 360 -5 c227 -3 367
-9 378 -16 17 -10 17 -11 -4 -30 -20 -18 -41 -19 -406 -21 l-386 -3 -32 -25
c-24 -17 -39 -42 -54 -87 -38 -113 -25 -430 21 -485 11 -13 34 -27 98 -60 31
-16 77 -19 447 -23 291 -4 415 -8 424 -16 17 -18 1 -53 -29 -61 -45 -13 -765
-8 -901 6 -128 13 -172 27 -187 58 -14 29 -21 1402 -8 1439 25 66 6 64 561 64
302 0 512 -4 527 -10z m136 -59 c17 -32 12 -86 -11 -115 l-20 -26 -428 0 -428
0 -34 -23 c-31 -21 -35 -28 -40 -87 -4 -36 -7 -97 -8 -137 -1 -85 -7 -103 -32
-103 -27 0 -31 29 -27 177 3 119 5 133 28 167 14 20 41 47 60 59 34 21 44 22
425 28 215 3 390 7 391 7 8 13 92 72 101 72 7 0 17 -9 23 -19z m1654 3 c27
-26 20 -86 -12 -117 l-28 -27 -221 0 c-237 0 -278 -7 -294 -46 -5 -14 -8 -310
-8 -690 1 -718 5 -666 -50 -734 -18 -22 -27 -25 -91 -25 -80 0 -100 14 -100
67 0 25 4 28 32 28 39 0 104 43 124 82 8 15 17 47 20 70 3 24 6 304 7 624 l2
581 29 42 c47 68 67 74 271 82 99 3 189 10 200 15 11 4 36 20 55 36 40 33 43
33 64 12z m1897 -51 c12 -13 14 -144 17 -741 3 -775 3 -774 -47 -822 -22 -21
-35 -25 -88 -25 -50 0 -65 4 -77 20 -25 33 -20 64 12 70 48 10 76 30 107 75
l30 45 3 675 c1 371 5 685 7 698 6 26 18 28 36 5z m1085 7 c69 -13 114 -29
114 -41 0 -5 11 -14 25 -19 28 -11 35 -34 8 -26 -96 29 -274 36 -308 12 -11
-7 -42 -21 -70 -30 -61 -20 -108 -59 -128 -106 -18 -40 -51 -80 -65 -80 -28 0
-24 90 6 140 21 34 84 100 96 100 5 0 17 7 27 16 16 14 139 40 205 43 17 0 57
-4 90 -9z m-3999 -26 c16 -3 40 -14 53 -25 24 -19 25 -20 6 -34 -26 -20 -395
-22 -414 -3 -13 13 -16 50 -5 61 8 9 319 9 360 1z m1803 -95 c0 -10 -4 -19
-10 -19 -5 0 -10 12 -10 26 0 14 4 23 10 19 6 -3 10 -15 10 -26z m2758 -84
c33 -68 28 -100 -26 -157 -23 -25 -33 -28 -88 -28 -54 0 -65 3 -78 22 -9 12
-16 32 -16 44 0 17 7 22 40 27 55 7 97 43 111 95 6 23 17 42 23 42 7 0 22 -20
34 -45z m-2713 -72 c5 -26 3 -33 -8 -33 -15 0 -25 40 -19 74 5 24 16 7 27 -41z
m45 -181 c0 -7 -4 -10 -10 -7 -5 3 -10 16 -10 28 0 18 2 19 10 7 5 -8 10 -21
10 -28z m588 -159 c-5 -60 -15 -128 -22 -153 -8 -25 -17 -65 -21 -90 -3 -25
-15 -72 -26 -105 -11 -33 -44 -161 -74 -285 -30 -124 -62 -239 -71 -257 -39
-76 -105 -104 -208 -89 -37 6 -49 13 -66 41 -12 19 -19 39 -15 45 3 5 26 10
50 10 55 0 92 14 129 48 29 27 86 134 86 162 0 8 11 55 24 105 14 49 36 135
50 190 82 333 134 485 165 485 4 0 3 -48 -1 -107z m-548 24 c0 -33 -25 -12
-28 24 -2 32 -1 33 13 15 8 -11 15 -28 15 -39z m-411 -124 c12 -120 18 -754 7
-805 -12 -56 -35 -71 -112 -72 -55 -1 -68 2 -80 19 -20 28 -14 69 11 73 44 7
71 25 100 65 l30 42 6 405 c3 223 7 407 8 410 7 15 21 -51 30 -137z m2096 67
c39 -16 93 -34 120 -40 28 -6 59 -14 70 -19 11 -5 46 -14 78 -21 101 -20 240
-69 290 -100 46 -30 54 -50 19 -50 -37 0 -491 119 -530 139 -23 12 -45 21 -51
21 -16 0 -110 66 -130 92 -27 33 -17 41 28 22 20 -9 68 -29 106 -44z m-4327
-42 c22 -22 14 -65 -19 -92 l-31 -26 -389 0 -389 0 -31 -28 -30 -27 -6 -153
c-7 -165 -18 -206 -48 -168 -12 16 -15 51 -15 166 0 131 2 150 23 190 15 32
35 52 67 70 l45 25 358 5 c228 3 360 9 365 15 9 13 52 33 73 34 8 1 20 -4 27
-11z m5332 -247 c5 -11 17 -52 25 -91 18 -87 7 -179 -31 -251 -13 -26 -24 -52
-24 -58 0 -7 -29 -41 -65 -76 -65 -63 -187 -135 -230 -135 -11 0 -29 -6 -40
-14 -28 -19 -86 -26 -259 -32 -148 -6 -162 -4 -296 33 -103 28 -210 95 -210
130 0 15 41 18 55 4 6 -6 48 -24 95 -42 l85 -33 210 0 c233 1 236 1 389 81 76
40 94 52 140 101 35 38 96 146 96 171 0 10 5 22 10 27 6 6 13 48 16 95 8 114
13 128 34 90z m-5222 -550 c4 -56 -12 -87 -51 -101 -19 -6 -225 -10 -587 -10
-552 0 -558 0 -584 21 -19 15 -26 29 -24 46 l3 25 510 -1 c312 -1 531 2 563 9
31 6 67 21 84 35 20 17 40 25 57 23 23 -3 26 -8 29 -47z m5375 -2672 c9 -17
15 -35 11 -40 -3 -5 1 -9 9 -9 20 0 40 -44 32 -71 -13 -44 -365 -376 -470
-445 -33 -21 -55 -39 -89 -71 -13 -13 -26 -23 -29 -23 -2 0 -63 -39 -133 -86
-71 -47 -149 -97 -174 -111 -25 -13 -63 -35 -85 -48 -22 -14 -56 -33 -75 -42
-19 -10 -37 -21 -40 -24 -3 -4 -23 -15 -45 -26 -22 -11 -69 -35 -105 -53 -36
-17 -74 -36 -85 -40 -23 -9 -120 -53 -180 -80 -37 -18 -63 -28 -155 -60 -19
-7 -54 -21 -78 -31 -23 -11 -48 -19 -56 -19 -12 0 -107 -26 -196 -55 -78 -25
-262 -53 -305 -47 -13 2 -29 21 -44 52 -14 27 -36 59 -49 71 -29 25 -22 32 43
43 22 4 49 13 60 20 11 7 92 36 180 65 88 29 172 59 187 67 14 8 31 14 38 14
11 0 117 43 185 75 17 7 64 28 105 45 41 17 82 35 90 41 8 5 23 12 33 16 35
11 288 143 343 178 30 19 58 35 62 35 7 0 86 50 108 68 5 5 21 15 35 22 38 20
248 160 309 206 30 23 87 63 125 90 39 27 128 96 198 154 110 91 195 150 216
150 3 0 14 -14 24 -31z"/>
</g>
</svg>
